<svg width="32" height="32" viewBox="0 0 32 32" fill="none" xmlns="http://www.w3.org/2000/svg">
<path d="M26.0054 17C26.0207 15.6771 25.7734 14.3644 25.2777 13.1378C24.782 11.9113 24.0479 10.7952 23.1179 9.8544C22.1878 8.91356 21.0804 8.1666 19.8596 7.65681C18.6388 7.14702 17.329 6.88452 16.0061 6.88452C14.6832 6.88452 13.3734 7.14702 12.1526 7.65681C10.9318 8.1666 9.82437 8.91356 8.89433 9.8544C7.96429 10.7952 7.23018 11.9113 6.73451 13.1378C6.23885 14.3644 5.99149 15.6771 6.00677 17C6.03716 19.632 7.10404 22.1459 8.97598 23.9963C10.8479 25.8467 13.3739 26.8845 16.0061 26.8845C18.6383 26.8845 21.1643 25.8467 23.0362 23.9963C24.9082 22.1459 25.975 19.632 26.0054 17Z" stroke="white" stroke-width="2" stroke-linecap="round" stroke-linejoin="round"/>
<path d="M8.88406 5.7C8.35879 5.25088 7.69114 5.00282 7.00006 5L6.82539 5.00533C5.22939 5.10133 4.00006 6.5 4.00539 8.18667C4.00539 9.012 4.29606 9.39733 4.68539 9.888C4.70954 9.91961 4.74005 9.9458 4.77497 9.96486C4.80988 9.98393 4.84841 9.99544 4.88806 9.99867H4.94272C4.97386 9.99841 5.00452 9.99093 5.03229 9.97682C5.06005 9.9627 5.08416 9.94234 5.10272 9.91733L8.89872 6.18667C8.93088 6.15419 8.95608 6.1155 8.97277 6.07295C8.98947 6.03041 8.9973 5.9849 8.99581 5.93922C8.99431 5.89354 8.98351 5.84865 8.96406 5.80729C8.94462 5.76592 8.91694 5.72896 8.88272 5.69867L8.88406 5.7Z" stroke="white" stroke-width="2" stroke-linecap="round" stroke-linejoin="round"/>
<path d="M23.1188 5.7C23.6436 5.25107 24.3108 5.00301 25.0014 5L25.1748 5.00533C26.7721 5.10133 28.0014 6.5 27.9961 8.188C27.9961 9.01333 27.7054 9.39867 27.3161 9.88933C27.2921 9.92085 27.2619 9.94698 27.2272 9.96604C27.1925 9.98511 27.1542 9.99668 27.1148 10H27.0588C27.0277 9.99928 26.9973 9.99145 26.9698 9.97712C26.9423 9.96279 26.9184 9.94234 26.9001 9.91733L23.1028 6.188C23.0704 6.15562 23.0451 6.11696 23.0283 6.07439C23.0115 6.03183 23.0036 5.98627 23.0051 5.94053C23.0066 5.8948 23.0174 5.84986 23.037 5.80848C23.0565 5.76711 23.0844 5.73019 23.1188 5.7Z" stroke="white" stroke-width="2" stroke-linecap="round" stroke-linejoin="round"/>
<path d="M16.0054 10V17H11.0054" stroke="white" stroke-width="2" stroke-linecap="round" stroke-linejoin="round"/>
<path d="M26.0054 27L23.5054 24.5" stroke="white" stroke-width="2" stroke-linecap="round" stroke-linejoin="round"/>
<path d="M6.00537 27L8.50537 24.5" stroke="white" stroke-width="2" stroke-linecap="round" stroke-linejoin="round"/>
</svg>
