<svg width="16" height="17" viewBox="0 0 16 17" fill="none" xmlns="http://www.w3.org/2000/svg">
<path d="M13 2.71777H3C2.60218 2.71777 2.22064 2.87581 1.93934 3.15711C1.65804 3.43842 1.5 3.81995 1.5 4.21777V13.2178C1.5 13.6156 1.65804 13.9971 1.93934 14.2784C2.22064 14.5597 2.60218 14.7178 3 14.7178H13C13.3978 14.7178 13.7794 14.5597 14.0607 14.2784C14.342 13.9971 14.5 13.6156 14.5 13.2178V4.21777C14.5 3.81995 14.342 3.43842 14.0607 3.15711C13.7794 2.87581 13.3978 2.71777 13 2.71777Z" stroke="#8FA0FF" stroke-linecap="round" stroke-linejoin="round"/>
<path d="M9.25 8.21777C9.44891 8.21777 9.63968 8.13876 9.78033 7.9981C9.92098 7.85745 10 7.66669 10 7.46777C10 7.26886 9.92098 7.0781 9.78033 6.93744C9.63968 6.79679 9.44891 6.71777 9.25 6.71777C9.05109 6.71777 8.86032 6.79679 8.71967 6.93744C8.57902 7.0781 8.5 7.26886 8.5 7.46777C8.5 7.66669 8.57902 7.85745 8.71967 7.9981C8.86032 8.13876 9.05109 8.21777 9.25 8.21777Z" fill="#8FA0FF"/>
<path d="M11.75 8.21777C11.9489 8.21777 12.1397 8.13876 12.2803 7.9981C12.421 7.85745 12.5 7.66669 12.5 7.46777C12.5 7.26886 12.421 7.0781 12.2803 6.93744C12.1397 6.79679 11.9489 6.71777 11.75 6.71777C11.5511 6.71777 11.3603 6.79679 11.2197 6.93744C11.079 7.0781 11 7.26886 11 7.46777C11 7.66669 11.079 7.85745 11.2197 7.9981C11.3603 8.13876 11.5511 8.21777 11.75 8.21777Z" fill="#8FA0FF"/>
<path d="M9.25 10.7178C9.44891 10.7178 9.63968 10.6388 9.78033 10.4981C9.92098 10.3575 10 10.1667 10 9.96777C10 9.76886 9.92098 9.5781 9.78033 9.43744C9.63968 9.29679 9.44891 9.21777 9.25 9.21777C9.05109 9.21777 8.86032 9.29679 8.71967 9.43744C8.57902 9.5781 8.5 9.76886 8.5 9.96777C8.5 10.1667 8.57902 10.3575 8.71967 10.4981C8.86032 10.6388 9.05109 10.7178 9.25 10.7178Z" fill="#8FA0FF"/>
<path d="M11.75 10.7178C11.9489 10.7178 12.1397 10.6388 12.2803 10.4981C12.421 10.3575 12.5 10.1667 12.5 9.96777C12.5 9.76886 12.421 9.5781 12.2803 9.43744C12.1397 9.29679 11.9489 9.21777 11.75 9.21777C11.5511 9.21777 11.3603 9.29679 11.2197 9.43744C11.079 9.5781 11 9.76886 11 9.96777C11 10.1667 11.079 10.3575 11.2197 10.4981C11.3603 10.6388 11.5511 10.7178 11.75 10.7178Z" fill="#8FA0FF"/>
<path d="M4.25 10.7178C4.44891 10.7178 4.63968 10.6388 4.78033 10.4981C4.92098 10.3575 5 10.1667 5 9.96777C5 9.76886 4.92098 9.5781 4.78033 9.43744C4.63968 9.29679 4.44891 9.21777 4.25 9.21777C4.05109 9.21777 3.86032 9.29679 3.71967 9.43744C3.57902 9.5781 3.5 9.76886 3.5 9.96777C3.5 10.1667 3.57902 10.3575 3.71967 10.4981C3.86032 10.6388 4.05109 10.7178 4.25 10.7178Z" fill="#8FA0FF"/>
<path d="M6.75 10.7178C6.94891 10.7178 7.13968 10.6388 7.28033 10.4981C7.42098 10.3575 7.5 10.1667 7.5 9.96777C7.5 9.76886 7.42098 9.5781 7.28033 9.43744C7.13968 9.29679 6.94891 9.21777 6.75 9.21777C6.55109 9.21777 6.36032 9.29679 6.21967 9.43744C6.07902 9.5781 6 9.76886 6 9.96777C6 10.1667 6.07902 10.3575 6.21967 10.4981C6.36032 10.6388 6.55109 10.7178 6.75 10.7178Z" fill="#8FA0FF"/>
<path d="M4.25 13.2178C4.44891 13.2178 4.63968 13.1388 4.78033 12.9981C4.92098 12.8575 5 12.6667 5 12.4678C5 12.2689 4.92098 12.0781 4.78033 11.9374C4.63968 11.7968 4.44891 11.7178 4.25 11.7178C4.05109 11.7178 3.86032 11.7968 3.71967 11.9374C3.57902 12.0781 3.5 12.2689 3.5 12.4678C3.5 12.6667 3.57902 12.8575 3.71967 12.9981C3.86032 13.1388 4.05109 13.2178 4.25 13.2178Z" fill="#8FA0FF"/>
<path d="M6.75 13.2178C6.94891 13.2178 7.13968 13.1388 7.28033 12.9981C7.42098 12.8575 7.5 12.6667 7.5 12.4678C7.5 12.2689 7.42098 12.0781 7.28033 11.9374C7.13968 11.7968 6.94891 11.7178 6.75 11.7178C6.55109 11.7178 6.36032 11.7968 6.21967 11.9374C6.07902 12.0781 6 12.2689 6 12.4678C6 12.6667 6.07902 12.8575 6.21967 12.9981C6.36032 13.1388 6.55109 13.2178 6.75 13.2178Z" fill="#8FA0FF"/>
<path d="M9.25 13.2178C9.44891 13.2178 9.63968 13.1388 9.78033 12.9981C9.92098 12.8575 10 12.6667 10 12.4678C10 12.2689 9.92098 12.0781 9.78033 11.9374C9.63968 11.7968 9.44891 11.7178 9.25 11.7178C9.05109 11.7178 8.86032 11.7968 8.71967 11.9374C8.57902 12.0781 8.5 12.2689 8.5 12.4678C8.5 12.6667 8.57902 12.8575 8.71967 12.9981C8.86032 13.1388 9.05109 13.2178 9.25 13.2178Z" fill="#8FA0FF"/>
<path d="M4 1.71777V2.71777" stroke="#8FA0FF" stroke-linecap="round" stroke-linejoin="round"/>
<path d="M12 1.71777V2.71777" stroke="#8FA0FF" stroke-linecap="round" stroke-linejoin="round"/>
<path d="M14.5 5.21777H1.5" stroke="#8FA0FF" stroke-linecap="round" stroke-linejoin="round"/>
</svg>
