<svg width="24" height="24" viewBox="0 0 24 24" fill="none" xmlns="http://www.w3.org/2000/svg">
<path d="M22.5 6.00001C22.5 5.20436 22.1839 4.4413 21.6213 3.87869C21.0587 3.31608 20.2957 3.00001 19.5 3.00001H18.75V2.27001C18.75 1.86601 18.44 1.52001 18.036 1.50001C17.9346 1.49514 17.8333 1.5109 17.7382 1.54634C17.643 1.58178 17.5561 1.63616 17.4826 1.70619C17.4091 1.77622 17.3506 1.86044 17.3106 1.95374C17.2706 2.04705 17.25 2.1475 17.25 2.24901V3.00001H6.75V2.27001C6.75 1.86601 6.44 1.52001 6.036 1.50001C5.93461 1.49514 5.83328 1.5109 5.73816 1.54634C5.64303 1.58178 5.55609 1.63616 5.48261 1.70619C5.40912 1.77622 5.35061 1.86044 5.31063 1.95374C5.27065 2.04705 5.25002 2.1475 5.25 2.24901V3.00001H4.5C3.70435 3.00001 2.94129 3.31608 2.37868 3.87869C1.81607 4.4413 1.5 5.20436 1.5 6.00001V6.56201C1.49987 6.58674 1.50464 6.61124 1.51404 6.63411C1.52344 6.65698 1.53729 6.67776 1.55477 6.69524C1.57225 6.71273 1.59303 6.72657 1.6159 6.73597C1.63877 6.74537 1.66328 6.75014 1.688 6.75001H22.313C22.3627 6.74975 22.4103 6.72982 22.4453 6.69459C22.4803 6.65937 22.5 6.6117 22.5 6.56201V6.00001Z" fill="#8FA0FF"/>
<path d="M1.5 19.5C1.5 20.2956 1.81607 21.0587 2.37868 21.6213C2.94129 22.1839 3.70435 22.5 4.5 22.5H19.5C20.2956 22.5 21.0587 22.1839 21.6213 21.6213C22.1839 21.0587 22.5 20.2956 22.5 19.5V8.39C22.5 8.35287 22.4853 8.31726 22.459 8.29101C22.4327 8.26475 22.3971 8.25 22.36 8.25H1.64C1.60287 8.25 1.56726 8.26475 1.54101 8.29101C1.51475 8.31726 1.5 8.35287 1.5 8.39V19.5ZM17.625 9.75C17.9234 9.75 18.2095 9.86853 18.4205 10.0795C18.6315 10.2905 18.75 10.5766 18.75 10.875C18.75 11.1734 18.6315 11.4595 18.4205 11.6705C18.2095 11.8815 17.9234 12 17.625 12C17.3266 12 17.0405 11.8815 16.8295 11.6705C16.6185 11.4595 16.5 11.1734 16.5 10.875C16.5 10.5766 16.6185 10.2905 16.8295 10.0795C17.0405 9.86853 17.3266 9.75 17.625 9.75ZM17.625 13.5C17.9234 13.5 18.2095 13.6185 18.4205 13.8295C18.6315 14.0405 18.75 14.3266 18.75 14.625C18.75 14.9234 18.6315 15.2095 18.4205 15.4205C18.2095 15.6315 17.9234 15.75 17.625 15.75C17.3266 15.75 17.0405 15.6315 16.8295 15.4205C16.6185 15.2095 16.5 14.9234 16.5 14.625C16.5 14.3266 16.6185 14.0405 16.8295 13.8295C17.0405 13.6185 17.3266 13.5 17.625 13.5ZM13.875 9.75C14.1734 9.75 14.4595 9.86853 14.6705 10.0795C14.8815 10.2905 15 10.5766 15 10.875C15 11.1734 14.8815 11.4595 14.6705 11.6705C14.4595 11.8815 14.1734 12 13.875 12C13.5766 12 13.2905 11.8815 13.0795 11.6705C12.8685 11.4595 12.75 11.1734 12.75 10.875C12.75 10.5766 12.8685 10.2905 13.0795 10.0795C13.2905 9.86853 13.5766 9.75 13.875 9.75ZM13.875 13.5C14.1734 13.5 14.4595 13.6185 14.6705 13.8295C14.8815 14.0405 15 14.3266 15 14.625C15 14.9234 14.8815 15.2095 14.6705 15.4205C14.4595 15.6315 14.1734 15.75 13.875 15.75C13.5766 15.75 13.2905 15.6315 13.0795 15.4205C12.8685 15.2095 12.75 14.9234 12.75 14.625C12.75 14.3266 12.8685 14.0405 13.0795 13.8295C13.2905 13.6185 13.5766 13.5 13.875 13.5ZM13.875 17.25C14.1734 17.25 14.4595 17.3685 14.6705 17.5795C14.8815 17.7905 15 18.0766 15 18.375C15 18.6734 14.8815 18.9595 14.6705 19.1705C14.4595 19.3815 14.1734 19.5 13.875 19.5C13.5766 19.5 13.2905 19.3815 13.0795 19.1705C12.8685 18.9595 12.75 18.6734 12.75 18.375C12.75 18.0766 12.8685 17.7905 13.0795 17.5795C13.2905 17.3685 13.5766 17.25 13.875 17.25ZM10.125 13.5C10.4234 13.5 10.7095 13.6185 10.9205 13.8295C11.1315 14.0405 11.25 14.3266 11.25 14.625C11.25 14.9234 11.1315 15.2095 10.9205 15.4205C10.7095 15.6315 10.4234 15.75 10.125 15.75C9.82663 15.75 9.54048 15.6315 9.3295 15.4205C9.11853 15.2095 9 14.9234 9 14.625C9 14.3266 9.11853 14.0405 9.3295 13.8295C9.54048 13.6185 9.82663 13.5 10.125 13.5ZM10.125 17.25C10.4234 17.25 10.7095 17.3685 10.9205 17.5795C11.1315 17.7905 11.25 18.0766 11.25 18.375C11.25 18.6734 11.1315 18.9595 10.9205 19.1705C10.7095 19.3815 10.4234 19.5 10.125 19.5C9.82663 19.5 9.54048 19.3815 9.3295 19.1705C9.11853 18.9595 9 18.6734 9 18.375C9 18.0766 9.11853 17.7905 9.3295 17.5795C9.54048 17.3685 9.82663 17.25 10.125 17.25ZM6.375 13.5C6.67337 13.5 6.95952 13.6185 7.1705 13.8295C7.38147 14.0405 7.5 14.3266 7.5 14.625C7.5 14.9234 7.38147 15.2095 7.1705 15.4205C6.95952 15.6315 6.67337 15.75 6.375 15.75C6.07663 15.75 5.79048 15.6315 5.5795 15.4205C5.36853 15.2095 5.25 14.9234 5.25 14.625C5.25 14.3266 5.36853 14.0405 5.5795 13.8295C5.79048 13.6185 6.07663 13.5 6.375 13.5ZM6.375 17.25C6.67337 17.25 6.95952 17.3685 7.1705 17.5795C7.38147 17.7905 7.5 18.0766 7.5 18.375C7.5 18.6734 7.38147 18.9595 7.1705 19.1705C6.95952 19.3815 6.67337 19.5 6.375 19.5C6.07663 19.5 5.79048 19.3815 5.5795 19.1705C5.36853 18.9595 5.25 18.6734 5.25 18.375C5.25 18.0766 5.36853 17.7905 5.5795 17.5795C5.79048 17.3685 6.07663 17.25 6.375 17.25Z" fill="#8FA0FF"/>
</svg>
