<svg width="16" height="16" viewBox="0 0 16 16" fill="none" xmlns="http://www.w3.org/2000/svg">
<path d="M13 2.5H3C2.60218 2.5 2.22064 2.65804 1.93934 2.93934C1.65804 3.22064 1.5 3.60218 1.5 4V13C1.5 13.3978 1.65804 13.7794 1.93934 14.0607C2.22064 14.342 2.60218 14.5 3 14.5H13C13.3978 14.5 13.7794 14.342 14.0607 14.0607C14.342 13.7794 14.5 13.3978 14.5 13V4C14.5 3.60218 14.342 3.22064 14.0607 2.93934C13.7794 2.65804 13.3978 2.5 13 2.5Z" stroke="white" stroke-linecap="round" stroke-linejoin="round"/>
<path d="M9.25 8C9.44891 8 9.63968 7.92098 9.78033 7.78033C9.92098 7.63968 10 7.44891 10 7.25C10 7.05109 9.92098 6.86032 9.78033 6.71967C9.63968 6.57902 9.44891 6.5 9.25 6.5C9.05109 6.5 8.86032 6.57902 8.71967 6.71967C8.57902 6.86032 8.5 7.05109 8.5 7.25C8.5 7.44891 8.57902 7.63968 8.71967 7.78033C8.86032 7.92098 9.05109 8 9.25 8Z" fill="white"/>
<path d="M11.75 8C11.9489 8 12.1397 7.92098 12.2803 7.78033C12.421 7.63968 12.5 7.44891 12.5 7.25C12.5 7.05109 12.421 6.86032 12.2803 6.71967C12.1397 6.57902 11.9489 6.5 11.75 6.5C11.5511 6.5 11.3603 6.57902 11.2197 6.71967C11.079 6.86032 11 7.05109 11 7.25C11 7.44891 11.079 7.63968 11.2197 7.78033C11.3603 7.92098 11.5511 8 11.75 8Z" fill="white"/>
<path d="M9.25 10.5C9.44891 10.5 9.63968 10.421 9.78033 10.2803C9.92098 10.1397 10 9.94891 10 9.75C10 9.55109 9.92098 9.36032 9.78033 9.21967C9.63968 9.07902 9.44891 9 9.25 9C9.05109 9 8.86032 9.07902 8.71967 9.21967C8.57902 9.36032 8.5 9.55109 8.5 9.75C8.5 9.94891 8.57902 10.1397 8.71967 10.2803C8.86032 10.421 9.05109 10.5 9.25 10.5Z" fill="white"/>
<path d="M11.75 10.5C11.9489 10.5 12.1397 10.421 12.2803 10.2803C12.421 10.1397 12.5 9.94891 12.5 9.75C12.5 9.55109 12.421 9.36032 12.2803 9.21967C12.1397 9.07902 11.9489 9 11.75 9C11.5511 9 11.3603 9.07902 11.2197 9.21967C11.079 9.36032 11 9.55109 11 9.75C11 9.94891 11.079 10.1397 11.2197 10.2803C11.3603 10.421 11.5511 10.5 11.75 10.5Z" fill="white"/>
<path d="M4.25 10.5C4.44891 10.5 4.63968 10.421 4.78033 10.2803C4.92098 10.1397 5 9.94891 5 9.75C5 9.55109 4.92098 9.36032 4.78033 9.21967C4.63968 9.07902 4.44891 9 4.25 9C4.05109 9 3.86032 9.07902 3.71967 9.21967C3.57902 9.36032 3.5 9.55109 3.5 9.75C3.5 9.94891 3.57902 10.1397 3.71967 10.2803C3.86032 10.421 4.05109 10.5 4.25 10.5Z" fill="white"/>
<path d="M6.75 10.5C6.94891 10.5 7.13968 10.421 7.28033 10.2803C7.42098 10.1397 7.5 9.94891 7.5 9.75C7.5 9.55109 7.42098 9.36032 7.28033 9.21967C7.13968 9.07902 6.94891 9 6.75 9C6.55109 9 6.36032 9.07902 6.21967 9.21967C6.07902 9.36032 6 9.55109 6 9.75C6 9.94891 6.07902 10.1397 6.21967 10.2803C6.36032 10.421 6.55109 10.5 6.75 10.5Z" fill="white"/>
<path d="M4.25 13C4.44891 13 4.63968 12.921 4.78033 12.7803C4.92098 12.6397 5 12.4489 5 12.25C5 12.0511 4.92098 11.8603 4.78033 11.7197C4.63968 11.579 4.44891 11.5 4.25 11.5C4.05109 11.5 3.86032 11.579 3.71967 11.7197C3.57902 11.8603 3.5 12.0511 3.5 12.25C3.5 12.4489 3.57902 12.6397 3.71967 12.7803C3.86032 12.921 4.05109 13 4.25 13Z" fill="white"/>
<path d="M6.75 13C6.94891 13 7.13968 12.921 7.28033 12.7803C7.42098 12.6397 7.5 12.4489 7.5 12.25C7.5 12.0511 7.42098 11.8603 7.28033 11.7197C7.13968 11.579 6.94891 11.5 6.75 11.5C6.55109 11.5 6.36032 11.579 6.21967 11.7197C6.07902 11.8603 6 12.0511 6 12.25C6 12.4489 6.07902 12.6397 6.21967 12.7803C6.36032 12.921 6.55109 13 6.75 13Z" fill="white"/>
<path d="M9.25 13C9.44891 13 9.63968 12.921 9.78033 12.7803C9.92098 12.6397 10 12.4489 10 12.25C10 12.0511 9.92098 11.8603 9.78033 11.7197C9.63968 11.579 9.44891 11.5 9.25 11.5C9.05109 11.5 8.86032 11.579 8.71967 11.7197C8.57902 11.8603 8.5 12.0511 8.5 12.25C8.5 12.4489 8.57902 12.6397 8.71967 12.7803C8.86032 12.921 9.05109 13 9.25 13Z" fill="white"/>
<path d="M4 1.5V2.5" stroke="white" stroke-linecap="round" stroke-linejoin="round"/>
<path d="M12 1.5V2.5" stroke="white" stroke-linecap="round" stroke-linejoin="round"/>
<path d="M14.5 5H1.5" stroke="white" stroke-linecap="round" stroke-linejoin="round"/>
</svg>
