<svg width="24" height="24" viewBox="0 0 24 24" fill="none" xmlns="http://www.w3.org/2000/svg">
<path d="M12 1.5C7.86 1.5 4.5 4.524 4.5 8.25C4.5 14.25 12 22.5 12 22.5C12 22.5 19.5 14.25 19.5 8.25C19.5 4.524 16.14 1.5 12 1.5ZM12 12C11.6015 12.0073 11.2055 11.9351 10.8352 11.7876C10.4649 11.6401 10.1278 11.4203 9.84336 11.1411C9.55897 10.8618 9.33307 10.5287 9.17886 10.1612C9.02465 9.79365 8.94523 9.39907 8.94523 9.0005C8.94523 8.60192 9.02465 8.20735 9.17886 7.83981C9.33307 7.47228 9.55897 7.13915 9.84336 6.8599C10.1278 6.58065 10.4649 6.36087 10.8352 6.2134C11.2055 6.06593 11.6015 5.99372 12 6.001C12.786 6.01535 13.535 6.33768 14.0858 6.89863C14.6366 7.45959 14.9452 8.21434 14.9452 9.0005C14.9452 9.78666 14.6366 10.5414 14.0858 11.1024C13.535 11.6633 12.786 11.9856 12 12Z" fill="#B9C4FF"/>
</svg>
