<svg width="25" height="24" viewBox="0 0 25 24" fill="none" xmlns="http://www.w3.org/2000/svg">
<path d="M10.8639 3.00001C9.88967 2.98866 8.92289 3.17074 8.01955 3.53569C7.11621 3.90065 6.29428 4.44124 5.60136 5.12613C4.90844 5.81102 4.35831 6.6266 3.98285 7.52562C3.60739 8.42465 3.41406 9.38924 3.41406 10.3635C3.41406 11.3378 3.60739 12.3024 3.98285 13.2014C4.35831 14.1004 4.90844 14.916 5.60136 15.6009C6.29428 16.2858 7.11621 16.8264 8.01955 17.1913C8.92289 17.5563 9.88967 17.7384 10.8639 17.727C12.8019 17.7044 14.6529 16.9187 16.0154 15.5402C17.3779 14.1617 18.1421 12.3017 18.1421 10.3635C18.1421 8.42532 17.3779 6.56528 16.0154 5.18681C14.6529 3.80834 12.8019 3.0226 10.8639 3.00001Z" stroke="white" stroke-width="1.5" stroke-linecap="round"/>
<path d="M16.3574 15.86L21.5004 21.001" stroke="white" stroke-width="1.5" stroke-linecap="round"/>
</svg>
