<svg width="20" height="20" viewBox="0 0 20 20" fill="none" xmlns="http://www.w3.org/2000/svg">
<path d="M8.63689 2.50005C7.82505 2.49059 7.0194 2.64232 6.26662 2.94645C5.51384 3.25058 4.82889 3.70107 4.25146 4.27181C3.67402 4.84255 3.21559 5.52221 2.9027 6.27139C2.58982 7.02058 2.42871 7.8244 2.42871 8.6363C2.42871 9.4482 2.58982 10.252 2.9027 11.0012C3.21559 11.7504 3.67402 12.43 4.25146 13.0008C4.82889 13.5715 5.51384 14.022 6.26662 14.3261C7.0194 14.6303 7.82505 14.782 8.63689 14.7725C10.2519 14.7537 11.7945 14.0989 12.9299 12.9502C14.0653 11.8015 14.702 10.2515 14.702 8.6363C14.702 7.02114 14.0653 5.4711 12.9299 4.32238C11.7945 3.17365 10.2519 2.51887 8.63689 2.50005Z" stroke="white" stroke-width="1.25" stroke-linecap="round"/>
<path d="M13.2144 13.2167L17.5002 17.5008" stroke="white" stroke-width="1.25" stroke-linecap="round"/>
</svg>
