<svg width="33" height="32" viewBox="0 0 33 32" fill="none" xmlns="http://www.w3.org/2000/svg">
<path d="M26.6667 9H6.66675C5.8711 9 5.10804 9.31607 4.54543 9.87868C3.98282 10.4413 3.66675 11.2044 3.66675 12V24C3.66675 24.7956 3.98282 25.5587 4.54543 26.1213C5.10804 26.6839 5.8711 27 6.66675 27H26.6667C27.4624 27 28.2255 26.6839 28.7881 26.1213C29.3507 25.5587 29.6667 24.7956 29.6667 24V12C29.6667 11.2044 29.3507 10.4413 28.7881 9.87868C28.2255 9.31607 27.4624 9 26.6667 9Z" stroke="white" stroke-width="2" stroke-linejoin="round"/>
<path d="M26.3761 9.00002V7.12268C26.3757 6.66296 26.274 6.20898 26.0781 5.79309C25.8822 5.3772 25.5969 5.00966 25.2427 4.71666C24.8884 4.42365 24.4739 4.21241 24.0286 4.09799C23.5834 3.98357 23.1184 3.96878 22.6667 4.05468L6.20675 6.86402C5.49196 7.0003 4.84712 7.38173 4.38344 7.94253C3.91976 8.50333 3.66629 9.20835 3.66675 9.93602V13" stroke="white" stroke-width="2" stroke-linejoin="round"/>
<path d="M23.6667 20C23.1363 20 22.6276 19.7893 22.2525 19.4142C21.8775 19.0391 21.6667 18.5304 21.6667 18C21.6667 17.4696 21.8775 16.9609 22.2525 16.5858C22.6276 16.2107 23.1363 16 23.6667 16C24.1972 16 24.7059 16.2107 25.081 16.5858C25.456 16.9609 25.6667 17.4696 25.6667 18C25.6667 18.5304 25.456 19.0391 25.081 19.4142C24.7059 19.7893 24.1972 20 23.6667 20Z" fill="white"/>
</svg>
