<svg width="31" height="28" viewBox="0 0 31 28" fill="none" xmlns="http://www.w3.org/2000/svg">
<path d="M28.7283 14.9446L2.03229 25.9553C1.95814 25.9901 1.87644 26.0058 1.79467 26.0008C1.7129 25.9959 1.63368 25.9705 1.56428 25.927C1.49487 25.8834 1.43751 25.8232 1.39744 25.7517C1.35738 25.6803 1.33589 25.5999 1.33496 25.518V18.4353C1.33509 18.319 1.37577 18.2064 1.44999 18.1168C1.52422 18.0272 1.62735 17.9664 1.74163 17.9446L17.2176 15.0073C18.303 14.8006 18.303 13.2473 17.2176 13.042L1.74163 10.1046C1.62735 10.0829 1.52422 10.0221 1.44999 9.9325C1.37577 9.84294 1.33509 9.7303 1.33496 9.61398V2.53398C1.33496 2.17665 1.70296 1.89398 2.03229 2.03531L28.7283 13.1086C28.9075 13.1861 29.0601 13.3142 29.1674 13.4774C29.2746 13.6405 29.3317 13.8314 29.3317 14.0266C29.3317 14.2219 29.2746 14.4128 29.1674 14.5759C29.0601 14.7391 28.9075 14.8672 28.7283 14.9446Z" stroke="white" stroke-width="2" stroke-linecap="round" stroke-linejoin="round"/>
</svg>
