<svg width="24" height="24" viewBox="0 0 24 24" fill="none" xmlns="http://www.w3.org/2000/svg">
<path d="M6 14.25C6.59674 14.25 7.16903 14.0129 7.59099 13.591C8.01295 13.169 8.25 12.5967 8.25 12C8.25 11.4033 8.01295 10.831 7.59099 10.409C7.16903 9.98705 6.59674 9.75 6 9.75C5.40326 9.75 4.83097 9.98705 4.40901 10.409C3.98705 10.831 3.75 11.4033 3.75 12C3.75 12.5967 3.98705 13.169 4.40901 13.591C4.83097 14.0129 5.40326 14.25 6 14.25Z" stroke="white" stroke-width="1.5" stroke-linecap="round" stroke-linejoin="round"/>
<path d="M18 7.5C18.2955 7.5 18.5881 7.4418 18.861 7.32873C19.134 7.21566 19.3821 7.04992 19.591 6.84099C19.7999 6.63206 19.9657 6.38402 20.0787 6.11104C20.1918 5.83806 20.25 5.54547 20.25 5.25C20.25 4.95453 20.1918 4.66194 20.0787 4.38896C19.9657 4.11598 19.7999 3.86794 19.591 3.65901C19.3821 3.45008 19.134 3.28434 18.861 3.17127C18.5881 3.0582 18.2955 3 18 3C17.4033 3 16.831 3.23705 16.409 3.65901C15.9871 4.08097 15.75 4.65326 15.75 5.25C15.75 5.84674 15.9871 6.41903 16.409 6.84099C16.831 7.26295 17.4033 7.5 18 7.5Z" stroke="white" stroke-width="1.5" stroke-linecap="round" stroke-linejoin="round"/>
<path d="M18 21C18.2955 21 18.5881 20.9418 18.861 20.8287C19.134 20.7157 19.3821 20.5499 19.591 20.341C19.7999 20.1321 19.9657 19.884 20.0787 19.611C20.1918 19.3381 20.25 19.0455 20.25 18.75C20.25 18.4545 20.1918 18.1619 20.0787 17.889C19.9657 17.616 19.7999 17.3679 19.591 17.159C19.3821 16.9501 19.134 16.7843 18.861 16.6713C18.5881 16.5582 18.2955 16.5 18 16.5C17.4033 16.5 16.831 16.7371 16.409 17.159C15.9871 17.581 15.75 18.1533 15.75 18.75C15.75 19.3467 15.9871 19.919 16.409 20.341C16.831 20.7629 17.4033 21 18 21Z" stroke="white" stroke-width="1.5" stroke-linecap="round" stroke-linejoin="round"/>
<path d="M7.96002 13.102L16.04 17.646" stroke="white" stroke-width="1.5" stroke-linecap="round" stroke-linejoin="round"/>
<path d="M16.04 6.35199L7.96002 10.896" stroke="white" stroke-width="1.5" stroke-linecap="round" stroke-linejoin="round"/>
</svg>
