<svg width="25" height="24" viewBox="0 0 25 24" fill="none" xmlns="http://www.w3.org/2000/svg">
<path d="M20.48 5.987L19.967 6.5C19.7058 6.76111 19.3515 6.90774 18.9821 6.90765C18.6128 6.90755 18.2586 6.76074 17.9975 6.4995C17.7364 6.23826 17.5898 5.884 17.5899 5.51465C17.5899 5.14529 17.7368 4.79111 17.998 4.53L18.511 4.018L15.243 0.75L11.118 4.875L10.931 5.442L10.364 5.629L1.25 14.743L4.52 18.013L5.033 17.5C5.29424 17.2389 5.6485 17.0923 6.01785 17.0924C6.38721 17.0924 6.74139 17.2393 7.0025 17.5005C7.26361 17.7617 7.41024 18.116 7.41015 18.4854C7.41005 18.8547 7.26324 19.2089 7.002 19.47L6.489 19.982L9.757 23.25L18.869 14.137L19.057 13.571L19.624 13.383L23.749 9.258L20.48 5.987ZM10.704 6.241L11.729 5.216L13.276 6.763L12.25 7.788L10.704 6.241ZM12.719 8.257L13.745 7.231L15.269 8.756L14.244 9.781L12.719 8.257ZM14.714 10.252L15.74 9.226L17.264 10.751L16.241 11.779L14.714 10.252ZM18.257 13.794L16.71 12.247L17.735 11.221L19.282 12.768L18.257 13.794Z" fill="white"/>
</svg>
