<svg width="25" height="24" viewBox="0 0 25 24" fill="none" xmlns="http://www.w3.org/2000/svg">
<path d="M17.6586 6.84398C17.2687 6.45385 17.0404 5.93096 17.0193 5.37981C16.9982 4.82866 17.1858 4.28982 17.5446 3.87098C17.5746 3.83621 17.5902 3.79136 17.5884 3.74551C17.5865 3.69965 17.5673 3.65621 17.5346 3.62398L15.4656 1.55398C15.4487 1.53699 15.4286 1.5235 15.4065 1.5143C15.3843 1.5051 15.3606 1.50037 15.3366 1.50037C15.3127 1.50037 15.2889 1.5051 15.2668 1.5143C15.2447 1.5235 15.2245 1.53699 15.2076 1.55398L11.9106 4.84998C11.7892 4.97182 11.6975 5.11998 11.6426 5.28298C11.5885 5.44646 11.4971 5.5951 11.3756 5.71712C11.2541 5.83914 11.1059 5.93119 10.9426 5.98598C10.7792 6.04012 10.6306 6.13153 10.5086 6.25298L2.05264 14.707C2.03564 14.7239 2.02216 14.744 2.01296 14.7661C2.00376 14.7883 1.99902 14.812 1.99902 14.836C1.99902 14.86 2.00376 14.8837 2.01296 14.9058C2.02216 14.928 2.03564 14.9481 2.05264 14.965L4.12164 17.034C4.15387 17.0667 4.19731 17.0859 4.24316 17.0877C4.28902 17.0896 4.33387 17.0739 4.36864 17.044C4.78754 16.6867 5.32569 16.5004 5.87582 16.5222C6.42595 16.544 6.94766 16.7723 7.33697 17.1616C7.72628 17.551 7.95459 18.0727 7.9764 18.6228C7.99821 19.1729 7.81191 19.7111 7.45464 20.13C7.42468 20.1647 7.40905 20.2096 7.4109 20.2555C7.41276 20.3013 7.43197 20.3448 7.46464 20.377L9.53364 22.446C9.56775 22.48 9.61396 22.4991 9.66214 22.4991C9.71031 22.4991 9.75652 22.48 9.79064 22.446L18.2476 13.99C18.3691 13.868 18.4605 13.7194 18.5146 13.556C18.5689 13.3924 18.6605 13.2438 18.7822 13.1217C18.9038 12.9997 19.0522 12.9077 19.2156 12.853C19.3786 12.799 19.5276 12.707 19.6486 12.585L22.9456 9.28798C22.9626 9.27107 22.9761 9.25097 22.9853 9.22883C22.9945 9.20669 22.9993 9.18295 22.9993 9.15898C22.9993 9.13501 22.9945 9.11127 22.9853 9.08913C22.9761 9.06699 22.9626 9.04689 22.9456 9.02998L20.8776 6.96198C20.8454 6.92931 20.802 6.9101 20.7561 6.90825C20.7103 6.90639 20.6654 6.92202 20.6306 6.95198C20.2123 7.31137 19.6737 7.49968 19.1226 7.47929C18.5714 7.4589 18.0483 7.2313 17.6576 6.84198L17.6586 6.84398Z" stroke="white" stroke-width="1.5" stroke-linecap="round"/>
<path d="M12.2428 6.58601L11.4688 5.81201" stroke="white" stroke-width="1.5" stroke-linecap="round"/>
<path d="M14.3051 8.64799L13.7891 8.133" stroke="white" stroke-width="1.5" stroke-linecap="round"/>
<path d="M16.3695 10.711L15.8535 10.195" stroke="white" stroke-width="1.5" stroke-linecap="round"/>
<path d="M18.69 13.032L17.916 12.258" stroke="white" stroke-width="1.5" stroke-linecap="round"/>
</svg>
