<svg width="32" height="32" viewBox="0 0 32 32" fill="none" xmlns="http://www.w3.org/2000/svg">
<path d="M25.5 21H21.5C21.3674 21 21.2402 21.0527 21.1464 21.1464C21.0527 21.2402 21 21.3674 21 21.5V25.5C21 25.776 21.224 26 21.5 26H25.5C25.6326 26 25.7598 25.9473 25.8536 25.8536C25.9473 25.7598 26 25.6326 26 25.5V21.5C26 21.3674 25.9473 21.2402 25.8536 21.1464C25.7598 21.0527 25.6326 21 25.5 21Z" fill="white"/>
<path d="M20.5 17H17.5C17.3674 17 17.2402 17.0527 17.1464 17.1464C17.0527 17.2402 17 17.3674 17 17.5V20.5C17 20.776 17.224 21 17.5 21H20.5C20.6326 21 20.7598 20.9473 20.8536 20.8536C20.9473 20.7598 21 20.6326 21 20.5V17.5C21 17.3674 20.9473 17.2402 20.8536 17.1464C20.7598 17.0527 20.6326 17 20.5 17Z" fill="white"/>
<path d="M29.5 26H26.5C26.3674 26 26.2402 26.0527 26.1464 26.1464C26.0527 26.2402 26 26.3674 26 26.5V29.5C26 29.776 26.224 30 26.5 30H29.5C29.6326 30 29.7598 29.9473 29.8536 29.8536C29.9473 29.7598 30 29.6326 30 29.5V26.5C30 26.3674 29.9473 26.2402 29.8536 26.1464C29.7598 26.0527 29.6326 26 29.5 26Z" fill="white"/>
<path d="M29.5 17H27.5C27.3674 17 27.2402 17.0527 27.1464 17.1464C27.0527 17.2402 27 17.3674 27 17.5V19.5C27 19.776 27.224 20 27.5 20H29.5C29.6326 20 29.7598 19.9473 29.8536 19.8536C29.9473 19.7598 30 19.6326 30 19.5V17.5C30 17.3674 29.9473 17.2402 29.8536 17.1464C29.7598 17.0527 29.6326 17 29.5 17Z" fill="white"/>
<path d="M19.5 27H17.5C17.3674 27 17.2402 27.0527 17.1464 27.1464C17.0527 27.2402 17 27.3674 17 27.5V29.5C17 29.776 17.224 30 17.5 30H19.5C19.6326 30 19.7598 29.9473 19.8536 29.8536C19.9473 29.7598 20 29.6326 20 29.5V27.5C20 27.3674 19.9473 27.2402 19.8536 27.1464C19.7598 27.0527 19.6326 27 19.5 27Z" fill="white"/>
<path d="M25.5 6H21.5C21.3674 6 21.2402 6.05268 21.1464 6.14645C21.0527 6.24022 21 6.36739 21 6.5V10.5C21 10.776 21.224 11 21.5 11H25.5C25.6326 11 25.7598 10.9473 25.8536 10.8536C25.9473 10.7598 26 10.6326 26 10.5V6.5C26 6.36739 25.9473 6.24022 25.8536 6.14645C25.7598 6.05268 25.6326 6 25.5 6Z" fill="white"/>
<path d="M28 3H19C18.7348 3 18.4804 3.10536 18.2929 3.29289C18.1054 3.48043 18 3.73478 18 4V13C18 13.552 18.448 14 19 14H28C28.2652 14 28.5196 13.8946 28.7071 13.7071C28.8946 13.5196 29 13.2652 29 13V4C29 3.73478 28.8946 3.48043 28.7071 3.29289C28.5196 3.10536 28.2652 3 28 3Z" stroke="white" stroke-width="2" stroke-linecap="round" stroke-linejoin="round"/>
<path d="M10.5 6H6.5C6.36739 6 6.24022 6.05268 6.14645 6.14645C6.05268 6.24022 6 6.36739 6 6.5V10.5C6 10.776 6.224 11 6.5 11H10.5C10.6326 11 10.7598 10.9473 10.8536 10.8536C10.9473 10.7598 11 10.6326 11 10.5V6.5C11 6.36739 10.9473 6.24022 10.8536 6.14645C10.7598 6.05268 10.6326 6 10.5 6Z" fill="white"/>
<path d="M13 3H4C3.73478 3 3.48043 3.10536 3.29289 3.29289C3.10536 3.48043 3 3.73478 3 4V13C3 13.552 3.448 14 4 14H13C13.2652 14 13.5196 13.8946 13.7071 13.7071C13.8946 13.5196 14 13.2652 14 13V4C14 3.73478 13.8946 3.48043 13.7071 3.29289C13.5196 3.10536 13.2652 3 13 3Z" stroke="white" stroke-width="2" stroke-linecap="round" stroke-linejoin="round"/>
<path d="M10.5 21H6.5C6.36739 21 6.24022 21.0527 6.14645 21.1464C6.05268 21.2402 6 21.3674 6 21.5V25.5C6 25.776 6.224 26 6.5 26H10.5C10.6326 26 10.7598 25.9473 10.8536 25.8536C10.9473 25.7598 11 25.6326 11 25.5V21.5C11 21.3674 10.9473 21.2402 10.8536 21.1464C10.7598 21.0527 10.6326 21 10.5 21Z" fill="white"/>
<path d="M13 18H4C3.73478 18 3.48043 18.1054 3.29289 18.2929C3.10536 18.4804 3 18.7348 3 19V28C3 28.552 3.448 29 4 29H13C13.2652 29 13.5196 28.8946 13.7071 28.7071C13.8946 28.5196 14 28.2652 14 28V19C14 18.7348 13.8946 18.4804 13.7071 18.2929C13.5196 18.1054 13.2652 18 13 18Z" stroke="white" stroke-width="2" stroke-linecap="round" stroke-linejoin="round"/>
</svg>
