<svg width="348" height="70" viewBox="0 0 348 70" fill="none" xmlns="http://www.w3.org/2000/svg">
<path fill-rule="evenodd" clip-rule="evenodd" d="M81.0303 0H74.5834V20.236H76.0817C76.4959 20.236 76.8317 20.5717 76.8317 20.986C76.8317 21.4002 76.4959 21.736 76.0817 21.736H74.5834V69.23H80.8428C81.5936 66.773 83.879 64.986 86.5817 64.986C89.2845 64.986 91.5699 66.773 92.3207 69.23H98.6052V0H92.3475C91.5238 2.33038 89.3013 4 86.6889 4C84.0765 4 81.854 2.33038 81.0303 0ZM79.0817 20.236C78.6675 20.236 78.3317 20.5717 78.3317 20.986C78.3317 21.4002 78.6675 21.736 79.0817 21.736H82.0817C82.4959 21.736 82.8317 21.4002 82.8317 20.986C82.8317 20.5717 82.4959 20.236 82.0817 20.236H79.0817ZM85.0817 20.236C84.6675 20.236 84.3317 20.5717 84.3317 20.986C84.3317 21.4002 84.6675 21.736 85.0817 21.736H88.0817C88.4959 21.736 88.8317 21.4002 88.8317 20.986C88.8317 20.5717 88.4959 20.236 88.0817 20.236H85.0817ZM91.0817 20.236C90.6675 20.236 90.3317 20.5717 90.3317 20.986C90.3317 21.4002 90.6675 21.736 91.0817 21.736H94.0817C94.4959 21.736 94.8317 21.4002 94.8317 20.986C94.8317 20.5717 94.4959 20.236 94.0817 20.236H91.0817ZM97.0817 20.236C96.6675 20.236 96.3317 20.5717 96.3317 20.986C96.3317 21.4002 96.6675 21.736 97.0817 21.736H98.5817V20.236H97.0817Z" fill="white"/>
<path d="M22.8425 13.0548V69.23H38.8643V13.0548H61.0179V0H0.688904V13.0548H22.8425Z" fill="white"/>
<path d="M132.551 0L147.919 21.7002L163.001 0H181.408L157.263 33.4314L183.089 69.23H163.595L147.411 45.8973L131.463 69.23H112.068L137.636 33.9784L113.354 0H132.551Z" fill="white"/>
<path d="M209.338 69.23V30.2173L228.612 61.9114H236.832L256.219 29.3513L256.304 69.23H272.337L272.139 0H257.986L232.985 42.1513L207.558 0H193.305V69.23H209.338Z" fill="white"/>
<path d="M309.63 56.373V40.3512H341.773V27.8898H309.63V12.857H346.025V0H292.707V69.23H347.311V56.373H309.63Z" fill="white"/>
</svg>
